<svg xmlns="http://www.w3.org/2000/svg" xml:space="preserve" viewBox="0 0 1024 1024">
  <path d="M977.077 598.124c-.652 25.32-13.038 44.371-30.537 60.584-29.97 27.766-65.814 45.57-103.683 59.605-9.917 3.676-19.296 8.157-28.245 13.64-39.732 24.342-83.388 38.038-128.625 47.372-26.203 5.406-52.693 8.792-79.346 11.237a929.956 929.956 0 0 1-110.239 3.57c-29.566-.801-59.093-2.97-88.43-6.865-60.81-8.073-119.932-22.165-174.869-50.587-6.206-3.21-12.388-6.544-18.232-10.357-7.931-5.176-16.797-7.859-25.562-11.033-36.298-13.145-71.34-28.834-102.191-52.57-12.484-9.606-23.479-20.674-32.173-33.93-19.638-29.943-16.392-63.12 8.621-88.82 14.76-15.165 32.615-25.752 51.305-35.098 16.986-8.494 34.34-16.18 52.346-22.288 3.095-1.05 5.213-2.902 6.365-5.849 5.089-13.015 12.587-24.547 21.41-35.305 1.343-1.638 2.443-3.664 3.046-5.692 8.03-26.984 24.933-46.882 49.34-60.19 12.206-6.657 21.954-16.114 32.481-24.754 13.526-11.102 28.406-19.61 45.434-24.343 13.934-3.874 27.739-8.745 42.225-9.403 26.954-1.225 54.077-2.333 78.753 11.96 1.965 1.139 4.044 1.042 6.266.981 20.888-.572 41.155 1.934 59.72 12.536 6.261 3.576 11.583 8.399 17.229 12.79 2.569 2 5.374 2.854 8.568 3.56 16.02 3.54 31.685 8.072 43.653 20.354 1.9 1.952 3.957 2.056 6.37 1.347 23.58-6.927 47.747-9.692 72.227-11.123 20.168-1.18 40.292-1.31 60.353.374 24.463 2.053 49.11 3.738 72.107 13.728 6.458 2.805 12.47 6.33 17.526 11.317 6.296 6.212 9.439 13.56 8.155 22.528-.14.98-.083 1.998-.026 2.993.027.473.27.933.57 1.902 5.854-1.79 11.251-4.676 17.285-5.834 26.95-5.17 53.203 12.734 58.038 39.892 2.61 14.66 1.144 28.885-5.366 42.324-2.003 4.136-.926 5.585 2.924 7.39 23.193 10.872 45.22 23.543 62.869 42.629 12.83 13.874 20.981 29.87 22.338 49.428m-518.432-21.726c-13.673 4.847-27.79 6.631-42.23 5.938-4.339-.208-8.126.755-11.734 3.27-6.87 4.789-14.437 7.922-22.548 10.314-7.296 2.152-14.027 6.143-19.118 12.224-4.67 5.578-4.696 14.502-.1 19.983 5.289 6.309 9.53 13.242 12.177 21.079 5.488 16.249-2.138 31.639-18.294 37.23-10.885 3.766-22.186 4.444-32.941 1.232-19.236-5.745-39.37-5.364-58.761-10.098-15.071-3.68-28.908-8.974-40.225-19.7-13.61-12.898-27.748-25.26-39.977-39.575-11.493-13.454-18.097-28.605-19.47-46.493-1.072-13.989 1.908-27.771.403-41.757-1.148-10.672-.089-21.496 1.452-31.908-2.049-1.313-3.417-.36-4.758.14-16.867 6.28-33.454 13.196-49.26 21.873-15.427 8.47-29.71 18.427-41.572 31.603-17.262 19.177-20.244 40.869-8.36 61.498a99.247 99.247 0 0 0 14 18.793c19.463 20.536 43.346 34.677 68.52 46.805 62.045 29.89 128.463 44.85 195.728 56.783 28.454 5.047 57.111 8.562 85.888 11.295 22.687 2.154 45.415 3.99 68.156 4.506 45.275 1.027 90.518.204 135.654-4.57 24.276-2.569 48.505-5.399 72.552-9.466 38.058-6.438 75.489-15.596 112.15-27.771 39.39-13.082 77.347-29.073 110.434-54.807 13.534-10.527 25.472-22.556 32.711-38.452 2.913-6.397 4.795-13.199 4.195-20.284-1.123-13.281-7.36-24.39-15.638-34.467-16.84-20.502-39.04-33.388-62.718-44.264-4.346-1.996-6.863-1.142-9.61 2.446-9.075 11.852-20.883 20.483-33.824 27.624-17.787 9.816-37.027 14.573-57.18 15.951-1.904.13-3.53.553-5.024 1.823-5.962 5.068-12.028 10.014-17.973 15.102-2.612 2.237-4.157 4.665-3.237 8.675 2.541 11.07-1.753 19.512-11.198 25.444-2.672 1.678-5.442 3.288-8.349 4.488-25.933 10.707-52.71 13.156-80.207 7.806-12.537-2.44-24.451-6.538-34.753-14.373-7.553-5.745-12.111-13.172-9.717-22.883 1.229-4.985-.409-7.875-3.879-10.745-8.667-7.17-16.471-15.296-21.852-25.14-3.743-6.848-8.151-10.58-16.113-9.294-1.081.175-2.27-.468-3.423-.552-7.215-.524-14.398-2.912-21.65.15-9.815 4.146-20.154 5.571-30.748 5.173-8.336-.313-15.75 1.17-21.406 8.218-3.128 3.898-7.673 6.334-12.094 8.724-7.492 4.051-15.466 6.983-24.08 10.409m117.294-87.632c3.771 18.19 9.359 35.806 19.077 51.7 11.911 19.48 26.675 36.47 48.769 44.666 18.428 6.837 37.6 8.595 57.382 6.774 30.87-2.842 54.209-17.347 71.692-42.441 12.322-17.687 18.853-37.64 23.814-58.296 4.275-17.802 6.225-35.936 7.909-54.11.738-7.968-.965-9.161-8.403-6.13-1.079.44-2.171.847-3.265 1.249-28.581 10.509-58.475 13.698-88.554 14.98-19.92.848-39.885.472-59.822-1.634-23.854-2.519-47.456-5.734-69.89-14.794-4.855-1.96-6.756-.268-6.186 5.057 1.868 17.466 3.46 34.97 7.477 52.979m-92.892-104.334c-3.742-5.305-7.263-10.783-11.264-15.884-18.026-22.981-41.028-37.342-70.693-39.02-20.18-1.143-40.196.787-59.902 5.567-11.113 2.696-21.726 6.641-31.958 11.858 20.201.95 39.223 5.318 56.648 15.862 17.671 10.693 29.212 26.375 38.742 44.758-3.23.04-4.05-1.821-5.196-3.112-7.647-8.623-15.885-16.621-24.963-23.73-19.675-15.406-42.026-22.485-66.971-21.3-3.21.153-6.458.509-10.707 2.777 49.467 7.252 85.07 33.423 109.426 74.569 24.073 40.667 34.027 83.837 16.412 130.083.757.379 1.177.76 1.615.783 18.44.935 34.01-5.14 44.624-20.5 17.91-25.914 22.014-55.081 18.283-85.75-.72-5.917-1.777-11.795-2.68-17.69l1.772-.06c14.809 34.308 13.645 68.5-3.234 102.582 3.096.09 3.915-1.274 4.906-2.35 6.071-6.595 10.445-14.226 13.314-22.668 7.333-21.573 7.7-43.797 5.204-66.095-2.784-24.885-9.794-48.522-23.378-70.68m-164.873 45.829c20.393 11.59 36.51 27.203 47.407 49.37-1.653-.466-2.068-.456-2.266-.658a129.102 129.102 0 0 1-3.747-4.006c-15.423-17.214-33.041-31.434-54.757-40.022-18.657-7.378-37.892-11.942-57.974-8.405-27.868 4.908-52.194 26.944-61.339 56.291-.224.719-.438 1.677.744 2.097 1.807-.597 2.797-2.209 4.053-3.49 5.64-5.75 12.013-10.493 19.093-14.354 20.168-10.997 41.835-11.548 63.645-8.134 37.358 5.848 67.152 24.777 89.272 55.27 12.525 17.267 19.714 36.513 17.107 58.45-.35 2.955-1.685 5.825-1.16 9.228 3.33-3.711 5.217-7.726 6.485-12.1 3.527-12.162 2.1-24.354.418-36.579-.693-5.037-1.994-10.048-1.17-15.254 9.596 17.556 13.716 36.175 10.072 57.23 7.94-4.243 13.11-9.088 16.652-15.73 5.969-11.188 7.718-23.506 7.739-35.743.045-26.903-6.503-52.262-20.464-75.554-17.362-28.966-40.644-51.243-71.9-64.725-17.516-7.555-36.045-10.037-54.153-5.02-21.656 6-38.567 19.852-50.871 38.9-.651 1.008-1.76 2.095-.847 3.66 2.93.031 5.444-1.376 8.049-2.348 6.74-2.515 13.672-4.404 20.818-4.878 24.432-1.619 47.2 4.145 69.094 16.504M205.282 615.433c-.335-15.33 3.832-29.222 13.276-41.413 12.229-15.786 28.33-23.948 48.246-25.57 24.666-2.01 47.23 3.317 67.494 17.614 4.116 2.905 7.746 6.498 11.6 9.774l.81-1.046c-11.198-17.99-27.95-28.66-49.332-34.678 10.347-3.337 21.422-.32 30.906 4.734 17.347 9.245 29.427 22.547 32.366 42.755 1.84-.591 2.062-2.047 2.59-3.17 7.472-15.876 5.194-31.636-1.793-46.742-9.561-20.668-25.046-36.286-44.208-48.369-17.069-10.761-35.66-16.714-55.773-18.469-21.028-1.834-40.443 1.682-57.192 15.39-8.31 6.798-16.529 17.575-18.267 24.403 13.194-12.34 27.958-20.087 45.027-23.65 17.604-3.675 45.42.659 48.26 6.845-1.627.786-3.258.234-4.896.061-19.861-2.098-39.083-.487-57.456 8.37-37.699 18.175-48.745 60.921-31.925 93.874.709 1.388 1.021 3.177 3.56 3.658-.424-10.215.807-20.006 5.348-29.116 4.422-8.87 9.191-17.416 20.13-21.32-1.22 4.028-1.264 3.992-2.678 5.74-10.22 12.64-14.729 27.032-12.94 43.238.793 7.197 3.8 14.433 6.847 17.087m49.883 40.908c10.495 9.418 23.338 10.84 36.737 11.492.366-5.377-2.535-9.302-2.914-13.732-.377-4.41-1.422-9.055 2.557-13.42.483 1.628.788 2.55 1.03 3.487 4.846 18.72 17.25 29.325 36.006 31.995 9.46 1.347 19.33 2.117 28.058-3.81 6.918-4.699 9.633-11.644 6.914-19.487-5.103-14.718-16.283-23.609-29.898-29.77-4.474-2.025-9.408-3.032-15.092-4.804 7.587-3.82 14.878-2.374 22.099-2.142-1.385-1.732-2.742-2.945-4.224-3.98-18.087-12.622-36.468-11.209-55.045-1.143-2.015 1.092-3.864 2.933-6.534 2.395-.13-1.905.939-2.875 1.772-3.824 11.644-13.272 26.388-18.084 43.57-15.216 9.013 1.505 17.104 5.914 25.587 9.972-1.31-8.176-5.075-14.592-10.439-19.987-22.603-22.73-49.945-29.361-80.27-20.988-26.602 7.345-45.79 39.035-33.775 67.081 3.116 7.272 7.498 13.43 15.398 18.373-2.92-9.432-5.87-17.686-4.58-26.424 2.166-14.656 5.315-20.964 10.943-22.368-6.136 20.776-5.028 39.972 12.1 56.3m252.863-246.653c13.112 35.976 16.67 72.82 9.69 110.787 15.823-20.294 16.676-44.623 20.355-68.21 5.553 28.544 1.316 55.598-13.13 81.16 16.833 1.829 42.466-14.384 38.405-40.892-3.517-22.95-6.505-46.003-10.796-68.826-4.576-24.336-13.702-46.138-34.997-61.179-10.15-7.169-20.251-14.073-32.648-16.573-5.178-1.044-10.384-2.45-16.955-1.554 18.295 19.258 30.96 40.754 40.076 65.287m81.726 12.688c21.393-10.815 44.7-13.554 68.052-15.588 19.398-1.69 38.863-1.801 58.332-.209 22.115 1.81 43.916 4.8 64.446 13.862 1.662.734 3.392 1.769 5.258 1.095 6.033-2.18 11.516-5.118 15.143-10.791 2.427-3.797 1.668-6.876-1.412-9.751-4.009-3.742-8.926-5.803-14.071-7.261-27.143-7.694-54.911-11.438-83.043-12.256-18.459-.537-36.908-.05-55.346 1.744-19.22 1.87-38.227 4.675-56.918 9.52-5.37 1.391-10.315 3.818-14.801 7.042-4.746 3.41-6.376 7.596-4.005 11.503 3.962 6.53 9.656 10.827 18.365 11.09m27.756 342.961c-14.77.944-29.53 2.434-44.312 2.724-35.633.698-71.28.846-106.897-.861-9.463-.454-18.93-1.077-28.351-2.046-17.003-1.748-33.98-3.764-50.956-5.761-26.203-3.083-52.204-7.412-78.086-12.53-10.948-2.165-21.698-5.42-32.93-6.25a18.876 18.876 0 0 0 3.932 2.087c22.98 8.936 46.608 15.765 70.706 20.813 30.554 6.401 61.438 10.59 92.562 13.27 28.026 2.412 56.07 3.664 84.186 3.94 11.51.113 22.96-.811 34.44-1.139 12.957-.37 25.933-.93 38.835-2.118 22.634-2.083 45.205-4.857 67.59-8.87 27.664-4.96 55.055-11.084 81.648-20.355 2.33-.813 4.97-1.306 7.493-4.716-46.554 11.47-92.601 17.543-139.86 21.812m172.344-215.19c24.885-2.43 46.946-11.5 65.746-28.118 11.026-9.745 19.982-21.024 24.336-35.324 4.218-13.849 4.816-27.7-3.421-40.37-11.142-17.14-31.209-22.224-51.057-13.515-6.985 3.065-10.732 11.885-8.01 19.93 4.958-4.898 10.68-8.296 17.304-9.502 21.207-3.86 36.363 8.948 34.243 30.261-1.006 10.11-5.487 19.11-11.567 27.252-14.026 18.78-33.04 29.454-55.645 34.38-6.706 1.462-11.463 7.255-11.93 15.005m-126.02 65.463c11.066 1.53 22.145 1.997 33.316 1.136 12.035-.927 23.716-3.207 34.805-8.018 4.74-2.057 9.438-4.464 12.42-8.914 1.176-1.756 3.31-3.895 1.303-6.284-1.925-2.291-4.065-.383-5.881.435-15.26 6.872-31.346 9.923-47.964 10.381-21.38.59-42.11-2.444-61.672-11.617-1.157-.543-2.441-1.437-3.655-.144-1.183 1.26-1.071 2.668-.3 4.152 1.497 2.882 3.707 5.08 6.283 6.995 9.076 6.748 19.713 9.437 31.345 11.878m154.684-141.644c-1.137 3.197-4.392 7.113 1.854 8.38 8.327 1.688 16.306 4.524 24.446 6.817 2.916.821 4.762.173 6.166-2.47 2.349-4.423 4.26-8.912 4.949-13.983 1.524-11.213-6.887-19.065-17.956-16.73-9.835 2.075-15.23 8.817-19.46 17.986M812.6 494.3c-2.404-.297-4.5.32-5.063 2.873-1.718 7.81-2.605 15.784-5.617 24.55 15.111-3.536 27.534-9.137 38.293-20.29-9.454-3.38-18.137-5.181-27.613-7.133M569.328 386.124c-5.489-6.8-12.905-9.579-22.54-11.398 4.334 9.281 7.978 17.205 9.75 25.99 3.91-3.9 7.446-7.105 11.24-10.038 1.201-.929 2.074-2.183 1.55-4.554m-3.296 142.28c3.877 3.067 8.229 3.097 8.349.029.1-2.56-.157-5.799-3.048-6.814-2.889-1.015-3.174 2.168-4.244 3.863-.437.691-.669 1.512-1.057 2.921zM692.67 231.265c3.541 8.373 9.375 14.52 15.512 20.44 6.03 5.817 11.556 12.095 14.948 19.822 6.356 14.48 5.724 28.795-2.021 42.646-4.276 7.647-9.92 14.19-16.908 19.49-2.348 1.782-5.326 3.003-7.691.504-2.159-2.28-.83-4.97.755-7.285 3.482-5.086 6.93-10.184 9.176-15.989 5.3-13.7 3.326-26.391-5.25-38.157-3.54-4.858-7.687-9.174-11.96-13.403-6.911-6.84-13.192-14.185-15.502-24.002-3.658-15.548.978-28.902 11.156-40.634 2.934-3.383 5.986-6.737 9.976-8.993 2.009-1.135 4.128-1.666 6.048-.027 2.17 1.854 1.739 4.259.55 6.38-1.462 2.604-3.292 5-4.908 7.521-6.285 9.804-8.404 20.153-3.88 31.687zM645.397 237.45c-4.529 13.012-.816 23.907 7.247 33.737 3.055 3.725 6.385 7.254 9.84 10.615 15.495 15.075 14.923 39.524 4.3 56.134-1.838 2.874-4.087 5.154-7.766 3.47-3.488-1.597-2.39-4.643-1.732-7.395 3.978-16.641-.332-30.847-12.478-42.798-4.394-4.324-8.516-8.882-11.937-14.055-10.993-16.622-7.118-40.9 8.565-53.158 2.04-1.594 4.384-2.942 6.786-1.052 2.413 1.899 1.597 4.43.516 6.818a337.874 337.874 0 0 0-3.341 7.684z"/>
  <path d="M777.391 680.552c-35.194 12.782-71.13 20.952-107.643 26.846a1230.733 1230.733 0 0 1-56.274 7.75c-9.408 1.076-18.888 1.81-28.352 2.054-27.793.718-55.578 2.16-83.402 1.069-26.422-1.037-52.736-2.992-78.95-6.685-22.037-3.105-43.975-6.65-65.743-11.256-1.714-.362-3.537-.562-5.426-2.195 5.251-2.122 10.493-2.24 15.462-1.964 10.266.573 20.488 1.965 30.726 3.033 14.033 1.465 28.07 2.892 42.094 4.425 21.016 2.298 42.14 3.067 63.231 3.72 21.633.67 43.32.964 64.958-.305 8.475-.498 16.958-.564 25.44-1.114 23.07-1.495 45.916-4.517 68.737-8.056 35.072-5.438 69.51-13.422 103.028-25.126 25.912-9.048 50.748-20.268 72.125-37.964 5.911-4.895 11.342-10.287 15.987-16.446 7.312-9.694 9.675-20.565 7.418-33.948 5.715 5.04 6.999 10.548 7.46 16.192 1.116 13.655-5.114 24.47-14.03 34.012-15.17 16.235-33.921 27.285-53.863 36.474-7.403 3.411-15.068 6.253-22.983 9.484z"/>
</svg>
