<svg version="1.1" id="Layer_1" xmlns="http://www.w3.org/2000/svg" xmlns:xlink="http://www.w3.org/1999/xlink" x="0px" y="0px"
	 width="100%" viewBox="0 0 1024 1024" enable-background="new 0 0 1024 1024" xml:space="preserve">
<path fill="#000000" opacity="1.000000" stroke="none" 
	d="
M977.076782,598.123901 
	C976.424866,623.444946 964.038696,642.495483 946.539917,658.707520 
	C916.570007,686.473694 880.725891,704.278809 842.856689,718.313416 
	C832.940247,721.988647 823.561462,726.470154 814.611755,731.953308 
	C774.880493,756.295471 731.223938,769.991211 685.987000,779.324646 
	C659.783508,784.731079 633.294067,788.117249 606.640686,790.562195 
	C569.947021,793.928223 533.193787,795.130005 496.402466,794.132568 
	C466.836151,793.330933 437.308899,791.161133 407.971771,787.266541 
	C347.161285,779.193726 288.040314,765.101990 233.103134,736.679871 
	C226.897476,733.469299 220.714722,730.135803 214.871490,726.322693 
	C206.939850,721.146790 198.073898,718.464355 189.308838,715.290222 
	C153.010666,702.145447 117.968811,686.456177 87.117676,662.719055 
	C74.633705,653.113770 63.639286,642.045837 54.945240,628.790039 
	C35.306793,598.847229 38.553383,565.669067 63.566227,539.969360 
	C78.325256,524.804993 96.181442,514.218018 114.870628,504.871918 
	C131.856720,496.377533 149.210495,488.692383 167.216721,482.584351 
	C170.312332,481.534271 172.430389,479.681580 173.582199,476.735443 
	C178.670837,463.719513 186.169312,452.188293 194.991272,441.429901 
	C196.334534,439.791870 197.434723,437.766052 198.038193,435.738281 
	C206.068909,408.753540 222.971146,388.856049 247.377472,375.547211 
	C259.584137,368.890930 269.331909,359.434418 279.859009,350.794128 
	C293.385468,339.692017 308.265228,331.184601 325.292786,326.450562 
	C339.226654,322.576660 353.031952,317.706055 367.518250,317.047913 
	C394.471527,315.823334 421.595154,314.714996 446.270782,329.008514 
	C448.235718,330.146759 450.314636,330.050171 452.537292,329.989258 
	C473.425415,329.416992 493.692444,331.923370 512.256348,342.524719 
	C518.518005,346.100616 523.840271,350.923859 529.485596,355.315369 
	C532.054932,357.314087 534.859924,358.169037 538.053894,358.874878 
	C554.073303,362.414856 569.739197,366.946930 581.706665,379.229431 
	C583.607910,381.180756 585.664246,381.284515 588.077637,380.575592 
	C611.657837,373.648987 635.824036,370.884003 660.304382,369.452515 
	C680.471863,368.273254 700.596069,368.143738 720.656555,369.827271 
	C745.120361,371.880402 769.767273,373.564636 792.763855,383.554657 
	C799.222046,386.360168 805.234070,389.884155 810.289734,394.871857 
	C816.585999,401.083527 819.728638,408.432770 818.445374,417.400055 
	C818.305176,418.380188 818.361877,419.397797 818.418823,420.392792 
	C818.445862,420.865753 818.688538,421.326385 818.989807,422.295166 
	C824.843445,420.505310 830.240234,417.618774 836.273804,416.461121 
	C863.223755,411.290375 889.477478,429.195282 894.311951,456.352814 
	C896.921814,471.013641 895.456055,485.237640 888.946106,498.677277 
	C886.942627,502.813202 888.019836,504.261749 891.869629,506.066467 
	C915.062622,516.938904 937.089111,529.610474 954.738708,548.695984 
	C967.568787,562.569885 975.720215,578.566711 977.076782,598.123901 
M458.644897,576.397949 
	C444.971802,581.244568 430.854767,583.029480 416.415619,582.336487 
	C412.076050,582.128235 408.288635,583.091370 404.680725,585.606140 
	C397.810455,590.394714 390.243835,593.528076 382.132782,595.920349 
	C374.837006,598.072205 368.106293,602.062683 363.014526,608.144165 
	C358.344482,613.721985 358.319336,622.646240 362.914062,628.126709 
	C368.203613,634.435974 372.444977,641.368896 375.091888,649.205688 
	C380.580109,665.454956 372.953552,680.844666 356.798401,686.435181 
	C345.913055,690.202026 334.611511,690.879761 323.856628,687.667664 
	C304.621002,681.922729 284.486084,682.304321 265.095581,677.569702 
	C250.024689,673.889832 236.188416,668.596130 224.870697,657.870483 
	C211.260605,644.972412 197.122726,632.610779 184.893967,618.295227 
	C173.400894,604.840942 166.796555,589.689697 165.424850,571.801758 
	C164.352158,557.813110 167.332260,544.030945 165.827072,530.045410 
	C164.678528,519.373291 165.737991,508.549103 167.278778,498.137207 
	C165.230362,496.823883 163.862137,497.776581 162.520935,498.276093 
	C145.654175,504.557922 129.066666,511.473358 113.261856,520.149963 
	C97.833946,528.619690 83.550377,538.577148 71.689148,551.753479 
	C54.426964,570.929504 51.444744,592.622009 63.328392,613.251038 
	C67.254257,620.065979 71.922089,626.340576 77.328293,632.044312 
	C96.791946,652.579529 120.674652,666.720947 145.848602,678.848877 
	C207.893738,708.739929 274.311615,723.698914 341.576965,735.631531 
	C370.031097,740.679260 398.688324,744.194458 427.465302,746.926819 
	C450.152069,749.080872 472.879669,750.916992 495.621277,751.432983 
	C540.896118,752.460083 586.139221,751.636963 631.275146,746.862427 
	C655.551270,744.294434 679.780090,741.463989 703.826599,737.396545 
	C741.885010,730.959229 779.315552,721.801453 815.977844,709.625671 
	C855.366760,696.544495 893.324341,680.552612 926.410522,654.818665 
	C939.945007,644.291748 951.882629,632.263245 959.122070,616.367004 
	C962.035217,609.970459 963.916687,603.168396 963.317383,596.082703 
	C962.194153,582.801636 955.956482,571.692444 947.679260,561.615601 
	C930.839294,541.114258 908.638123,528.227600 884.960571,517.351990 
	C880.615295,515.356140 878.098389,516.210388 875.351196,519.798157 
	C866.276001,531.650208 854.467651,540.281311 841.526611,547.422424 
	C823.739624,557.237732 804.499695,561.995361 784.346130,563.373169 
	C782.442932,563.503296 780.816223,563.926331 779.323059,565.195740 
	C773.361206,570.264099 767.294617,575.209595 761.350281,580.298096 
	C758.737549,582.534607 757.192566,584.962952 758.113037,588.972839 
	C760.654053,600.042725 756.360291,608.484741 746.914612,614.417297 
	C744.243042,616.095215 741.473022,617.705200 738.566040,618.905334 
	C712.632690,629.611694 685.855957,632.060913 658.359253,626.710632 
	C645.821594,624.271179 633.907715,620.173462 623.606140,612.338318 
	C616.052612,606.593384 611.494812,599.166016 613.889038,589.454712 
	C615.117920,584.470093 613.480164,581.580444 610.010132,578.709656 
	C601.343323,571.539673 593.538574,563.413513 588.158325,553.570374 
	C584.414795,546.721741 580.006592,542.989929 572.045471,544.276123 
	C570.963745,544.450928 569.774719,543.807922 568.622314,543.724182 
	C561.406860,543.200378 554.223633,540.811951 546.971802,543.874878 
	C537.157227,548.020325 526.817505,549.445374 516.224182,549.047058 
	C507.887787,548.733582 500.474213,550.216187 494.817596,557.265015 
	C491.689636,561.162842 487.145233,563.598633 482.723846,565.989319 
	C475.231537,570.040466 467.257996,572.971741 458.644897,576.397949 
M575.937683,488.765961 
	C579.709473,506.955963 585.296753,524.571594 595.015320,540.465820 
	C606.926392,559.945862 621.689819,576.935730 643.783630,585.132202 
	C662.212280,591.968994 681.384277,593.726807 701.166260,591.905884 
	C732.035217,589.064453 755.374695,574.558838 772.857727,549.464905 
	C785.179993,531.778442 791.710815,511.825897 796.671509,491.169434 
	C800.946838,473.366577 802.896851,455.233398 804.580627,437.059723 
	C805.318848,429.091217 803.616333,427.897949 796.178040,430.929108 
	C795.099182,431.368713 794.006592,431.775665 792.913025,432.177765 
	C764.331726,442.686829 734.437744,445.876190 704.359314,447.157471 
	C684.438171,448.006042 664.473999,447.629669 644.537231,445.524200 
	C620.683472,443.005035 597.080688,439.789917 574.647766,430.730316 
	C569.792297,428.769440 567.891052,430.461548 568.460693,435.786652 
	C570.328857,453.253174 571.921265,470.756287 575.937683,488.765961 
M483.045502,384.431976 
	C479.303558,379.127289 475.782928,373.649078 471.781677,368.547791 
	C453.756226,345.566620 430.753662,331.205688 401.089233,329.527161 
	C380.909149,328.385284 360.892578,330.314789 341.187256,335.094788 
	C330.074188,337.790588 319.461182,341.736389 309.229431,346.953033 
	C329.429962,347.902893 348.451843,352.270844 365.877075,362.815125 
	C383.548004,373.508179 395.088928,389.190186 404.618896,407.572784 
	C401.389862,407.613586 400.568085,405.751556 399.423309,404.460815 
	C391.775787,395.838318 383.537689,387.839813 374.459839,380.731506 
	C354.785065,365.325287 332.434113,358.245789 307.488556,359.431854 
	C304.279816,359.584412 301.030884,359.939728 296.782013,362.208374 
	C346.248718,369.460449 381.852905,395.631134 406.208466,436.776642 
	C430.280975,477.444000 440.234558,520.614258 422.620056,566.859680 
	C423.377411,567.238586 423.797119,567.620728 424.235077,567.642944 
	C442.675446,568.578308 458.244568,562.502747 468.859344,547.143188 
	C486.768677,521.228516 490.873291,492.061737 487.141907,461.393646 
	C486.421844,455.475525 485.364624,449.598419 484.462921,443.702393 
	C485.053345,443.682404 485.643738,443.662445 486.234131,443.642456 
	C501.043030,477.950623 499.879211,512.143188 482.999573,546.225464 
	C486.096069,546.314453 486.914917,544.951172 487.905884,543.874756 
	C493.977264,537.279846 498.350677,529.648682 501.219910,521.207397 
	C508.552704,499.634216 508.919586,477.410400 506.424316,455.112091 
	C503.639526,430.226624 496.629547,406.589935 483.045502,384.431976 
M318.173004,430.260925 
	C338.566437,441.851318 354.683655,457.463715 365.579926,479.630310 
	C363.926575,479.165466 363.511627,479.175171 363.314117,478.972748 
	C362.037445,477.664185 360.786743,476.328644 359.566681,474.966858 
	C344.144318,457.752686 326.525787,443.532867 304.809570,434.944885 
	C286.153473,427.567078 266.918060,423.002563 246.835846,426.539734 
	C218.968140,431.448212 194.642441,453.484131 185.497131,482.831055 
	C185.273193,483.549683 185.059326,484.507568 186.240891,484.928253 
	C188.048233,484.330505 189.037857,482.719147 190.293533,481.438782 
	C195.933685,475.687653 202.307053,470.944977 209.386841,467.084442 
	C229.554810,456.087097 251.222031,455.535736 273.032379,458.949921 
	C310.390106,464.797943 340.183868,483.727234 362.304169,514.220520 
	C374.829254,531.486511 382.018097,550.733215 379.411377,572.670654 
	C379.060303,575.625122 377.725739,578.495178 378.251160,581.898071 
	C381.581604,578.186829 383.468353,574.171997 384.736420,569.798401 
	C388.262817,557.635925 386.835632,545.443726 385.153687,533.219360 
	C384.460541,528.181824 383.159973,523.170532 383.984009,517.964783 
	C393.580475,535.521240 397.700287,554.140259 394.056030,575.195618 
	C401.996368,570.951782 407.166046,566.106628 410.708282,559.465820 
	C416.676666,548.276672 418.426178,535.958862 418.446838,523.721802 
	C418.492279,496.818726 411.943970,471.460083 397.983002,448.167877 
	C380.621338,419.202057 357.338837,396.924896 326.083374,383.443237 
	C308.567078,375.887787 290.037842,373.405640 271.929993,378.422791 
	C250.274139,384.422974 233.362778,398.275269 221.058807,417.322723 
	C220.407639,418.330811 219.299652,419.417816 220.211548,420.983429 
	C223.141159,421.014252 225.655701,419.607086 228.261017,418.634888 
	C235.001099,416.119751 241.933350,414.230682 249.079178,413.757233 
	C273.511078,412.138489 296.278748,417.902313 318.173004,430.260925 
M205.281754,615.432861 
	C204.946762,600.102417 209.114090,586.210876 218.558044,574.019897 
	C230.787003,558.233826 246.887314,550.072144 266.804016,548.449707 
	C291.470215,546.440430 314.034882,551.767029 334.297699,566.064331 
	C338.413757,568.968628 342.043579,572.562073 345.897552,575.837769 
	C346.167419,575.489075 346.437256,575.140381 346.707092,574.791687 
	C335.509735,556.802307 318.758698,546.131531 297.375824,540.113708 
	C307.722992,536.776917 318.797943,539.793640 328.281738,544.847961 
	C345.628754,554.092896 357.708649,567.395020 360.647522,587.603333 
	C362.488617,587.011963 362.709839,585.556030 363.237976,584.433777 
	C370.709564,568.557312 368.432159,552.796631 361.444641,537.690979 
	C351.884003,517.022644 336.399200,501.404846 317.236572,489.322449 
	C300.168335,478.560577 281.576385,472.607880 261.463959,470.853424 
	C240.436096,469.019104 221.021286,472.535492 204.271545,486.242249 
	C195.962891,493.041443 187.743149,503.818207 186.005219,510.646179 
	C199.198822,498.306458 213.963440,490.558624 231.032043,486.995514 
	C248.636078,483.320740 276.451263,487.654968 279.291321,493.840851 
	C277.664948,494.627106 276.033539,494.075134 274.395721,493.902130 
	C254.534653,491.803925 235.313110,493.414886 216.940277,502.272186 
	C179.241013,520.446594 168.195236,563.193237 185.015335,596.146057 
	C185.723557,597.533569 186.036194,599.322693 188.574127,599.803772 
	C188.150909,589.589478 189.381897,579.797546 193.922729,570.688171 
	C198.344589,561.817444 203.114090,553.271545 214.053757,549.367676 
	C212.833618,553.395874 212.788818,553.359619 211.375168,555.108093 
	C201.154816,567.748657 196.646439,582.140015 198.434067,598.346008 
	C199.227982,605.543091 202.234253,612.778748 205.281754,615.432861 
M255.165359,656.340576 
	C265.659821,665.758728 278.503448,667.180481 291.902222,667.833435 
	C292.268250,662.455688 289.367249,658.530884 288.988464,654.100830 
	C288.611481,649.691711 287.565918,645.046265 291.545441,640.681641 
	C292.028412,642.308594 292.333038,643.230103 292.575714,644.167664 
	C297.421021,662.888672 309.825134,673.493408 328.581482,676.163391 
	C338.040894,677.509888 347.910797,678.280273 356.638580,672.352844 
	C363.556915,667.654358 366.271942,660.708862 363.552826,652.865723 
	C358.450378,638.148132 347.269745,629.256958 333.654572,623.095520 
	C329.181213,621.071045 324.247467,620.063904 318.563141,618.291992 
	C326.149658,614.472900 333.440674,615.918396 340.661957,616.149658 
	C339.277039,614.418457 337.920319,613.204895 336.438446,612.170715 
	C318.351135,599.547791 299.969727,600.961060 281.392822,611.027161 
	C279.378235,612.118652 277.528809,613.959839 274.859497,613.421814 
	C274.728821,611.516785 275.797516,610.546936 276.630585,609.597534 
	C288.275360,596.325684 303.018799,591.514282 320.200500,594.382324 
	C329.213715,595.886841 337.305054,600.295532 345.788452,604.354187 
	C344.478790,596.177673 340.713257,589.761597 335.349304,584.367432 
	C312.746155,561.636963 285.403595,555.005676 255.078888,563.378845 
	C228.477097,570.724060 209.288239,602.414185 221.304184,630.460205 
	C224.419678,637.731934 228.801788,643.889160 236.702377,648.832886 
	C233.781982,639.400574 230.832397,631.146973 232.122879,622.409180 
	C234.287521,607.752502 237.436966,601.444824 243.064514,600.041321 
	C236.929428,620.817261 238.037308,640.013184 255.165359,656.340576 
M508.027618,409.687714 
	C521.139587,445.663971 524.698547,482.507294 517.718872,520.474609 
	C533.541382,500.180969 534.393982,475.851929 538.072815,452.264801 
	C543.625549,480.809326 539.388672,507.862762 524.943359,533.424194 
	C541.775574,535.253906 567.409424,519.040649 563.347900,492.532776 
	C559.831482,469.582550 556.842712,446.530212 552.551819,423.707245 
	C547.976440,399.371216 538.849915,377.568695 517.555481,362.528412 
	C507.404938,355.359070 497.303864,348.455475 484.907074,345.955109 
	C479.728882,344.910706 474.523071,343.504364 467.952240,344.401184 
	C486.246979,363.658539 498.912201,385.155396 508.027618,409.687714 
M589.753723,422.375671 
	C611.146912,411.561340 634.453735,408.821930 657.805969,406.787750 
	C677.204285,405.098022 696.668579,404.986938 716.138184,406.579407 
	C738.252563,408.388245 760.053833,411.378143 780.583740,420.441376 
	C782.246399,421.175385 783.975952,422.209778 785.841736,421.535858 
	C791.875488,419.356323 797.357605,416.418243 800.984741,410.744965 
	C803.412048,406.948364 802.653015,403.868744 799.572815,400.993591 
	C795.563965,397.251740 790.647278,395.191498 785.501709,393.732910 
	C758.359314,386.038940 730.590881,382.294617 702.459473,381.476715 
	C684.000488,380.940033 665.550537,381.426117 647.112793,383.220947 
	C627.893799,385.091797 608.886353,387.896210 590.195007,392.740540 
	C584.824219,394.132477 579.879517,396.558777 575.393738,399.782867 
	C570.648376,403.193634 569.018433,407.378510 571.389160,411.286316 
	C575.350647,417.816376 581.045105,422.113068 589.753723,422.375671 
M617.509705,765.337402 
	C602.739868,766.281372 587.980774,767.770935 573.198120,768.060730 
	C537.565002,768.759155 501.918823,768.906921 466.300537,767.199524 
	C456.838287,766.745911 447.371002,766.123169 437.949554,765.154480 
	C420.946564,763.406250 403.970398,761.389648 386.993958,759.392517 
	C360.791199,756.310059 334.790375,751.981201 308.907959,746.862610 
	C297.960327,744.697510 287.210205,741.442078 275.977814,740.612854 
	C277.234589,741.483521 278.542755,742.168274 279.910370,742.700134 
	C302.889954,751.636108 326.518372,758.465088 350.616180,763.513428 
	C381.169800,769.914246 412.054047,774.103699 443.178436,776.782776 
	C471.204498,779.195190 499.247345,780.447205 527.364197,780.722778 
	C538.874329,780.835632 550.323975,779.911804 561.804871,779.583984 
	C574.761047,779.213989 587.736877,778.653564 600.638916,777.466125 
	C623.273193,775.382812 645.843506,772.609436 668.228394,768.596252 
	C695.892578,763.636658 723.283569,757.512024 749.877136,748.240784 
	C752.207581,747.428223 754.846191,746.935364 757.369751,743.525452 
	C710.815796,754.994873 664.768982,761.067627 617.509705,765.337402 
M789.853821,550.146484 
	C814.738708,547.717163 836.800049,538.646240 855.600281,522.029297 
	C866.625793,512.284241 875.581665,501.004730 879.936462,486.705292 
	C884.154053,472.856262 884.751587,459.005341 876.514526,446.334198 
	C865.373108,429.195068 845.306458,424.110992 825.457642,432.820068 
	C818.472656,435.884918 814.726135,444.705444 817.448792,452.750397 
	C822.405762,447.852417 828.128723,444.453857 834.752197,443.248016 
	C855.958984,439.387177 871.115112,452.195953 868.994995,473.509064 
	C867.989319,483.619202 863.508362,492.618927 857.427673,500.760742 
	C843.401978,519.540710 824.388916,530.214783 801.783203,535.141296 
	C795.077026,536.602783 790.319519,542.396484 789.853821,550.146484 
M663.833313,615.609436 
	C674.899353,617.138062 685.978333,617.606262 697.149414,616.745117 
	C709.183655,615.817566 720.865479,613.538025 731.953979,608.726807 
	C736.694519,606.669861 741.392334,604.263062 744.373901,599.812866 
	C745.550110,598.057434 747.684937,595.917786 745.677429,593.528931 
	C743.751892,591.237671 741.611938,593.146240 739.795959,593.964050 
	C724.535889,600.836304 708.449890,603.886597 691.831909,604.345215 
	C670.451843,604.935242 649.721619,601.901184 630.160339,592.727539 
	C629.002747,592.184692 627.718872,591.290833 626.505188,592.583740 
	C625.322388,593.843689 625.433777,595.251587 626.205017,596.736145 
	C627.702026,599.617554 629.911560,601.815186 632.488281,603.730835 
	C641.564392,610.478638 652.200684,613.167664 663.833313,615.609436 
M818.516724,473.965240 
	C817.380188,477.162079 814.124512,481.078094 820.371399,482.344696 
	C828.697510,484.032959 836.677063,486.868958 844.817383,489.162018 
	C847.733459,489.983459 849.578918,489.335205 850.982910,486.691589 
	C853.331909,482.268677 855.242615,477.779999 855.931824,472.709442 
	C857.455872,461.496338 849.045105,453.643921 837.976440,455.979126 
	C828.140930,458.054199 822.746521,464.795807 818.516724,473.965240 
M812.599670,494.299530 
	C810.195679,494.002686 808.099121,494.620392 807.537292,497.173126 
	C805.818665,504.982422 804.932312,512.956909 801.920044,521.723145 
	C817.031311,518.187256 829.453613,512.585754 840.212891,501.432922 
	C830.758911,498.052551 822.075806,496.251923 812.599670,494.299530 
M569.328308,386.123932 
	C563.839233,379.324463 556.422607,376.545227 546.787842,374.726471 
	C551.121521,384.007355 554.765808,391.931458 556.538635,400.716431 
	C560.447266,396.815247 563.984009,393.611481 567.778748,390.677582 
	C568.979370,389.749298 569.851868,388.495239 569.328308,386.123932 
M566.031799,528.403076 
	C569.909363,531.471436 574.260864,531.501465 574.380920,528.432617 
	C574.481201,525.872192 574.223999,522.634460 571.332825,521.618774 
	C568.444458,520.604126 568.158936,523.787354 567.089050,525.481689 
	C566.652283,526.173340 566.419983,526.994080 566.031799,528.403076 
z"/>
<path fill="#000000" opacity="1.000000" stroke="none" 
	d="
M692.670532,231.264648 
	C696.211243,239.637924 702.045105,245.784714 708.182373,251.705460 
	C714.211548,257.521973 719.737793,263.800018 723.129639,271.526642 
	C729.485901,286.006287 728.853638,300.321777 721.108704,314.173309 
	C716.832947,321.820251 711.188477,328.362915 704.200745,333.663452 
	C701.852661,335.444611 698.875305,336.665680 696.509888,334.167419 
	C694.351135,331.887451 695.680908,329.196106 697.265137,326.882141 
	C700.747192,321.796417 704.195007,316.697876 706.440674,310.893311 
	C711.740967,297.193176 709.767090,284.502014 701.190918,272.735901 
	C697.650391,267.878357 693.504395,263.562103 689.231262,259.333374 
	C682.319763,252.493622 676.039429,245.147812 673.729370,235.330505 
	C670.071045,219.783325 674.706909,206.429291 684.885071,194.696716 
	C687.819214,191.314453 690.870667,187.959671 694.861206,185.704041 
	C696.869812,184.568695 698.989136,184.037628 700.909363,185.677490 
	C703.079346,187.530579 702.647827,189.935623 701.458313,192.056137 
	C699.997009,194.661301 698.167114,197.057266 696.550903,199.578430 
	C690.266479,209.381836 688.147095,219.731339 692.670532,231.264648 
z"/>
<path fill="#000000" opacity="1.000000" stroke="none" 
	d="
M645.396851,237.449539 
	C640.868225,250.461685 644.580872,261.356628 652.643677,271.186981 
	C655.698669,274.911743 659.028809,278.441193 662.483826,281.802429 
	C677.979248,296.877350 677.406799,321.326355 666.783752,337.936432 
	C664.946167,340.809631 662.696899,343.089935 659.018066,341.405823 
	C655.529846,339.809021 656.628418,336.763336 657.286255,334.011169 
	C661.264038,317.369904 656.954346,303.164368 644.807983,291.213074 
	C640.413696,286.889313 636.292358,282.330566 632.871399,277.158081 
	C621.877625,260.535767 625.753418,236.257660 641.436279,224.000412 
	C643.476074,222.406219 645.819824,221.058228 648.221863,222.948334 
	C650.634644,224.846939 649.819031,227.377884 648.737854,229.765701 
	C647.640076,232.189987 646.588745,234.635315 645.396851,237.449539 
z"/>
<path fill="#000000" opacity="1.000000" stroke="none" 
	d="
M777.391113,680.551514 
	C742.197083,693.333801 706.261719,701.503845 669.748169,707.397949 
	C651.047424,710.416687 632.286865,712.996338 613.473938,715.148193 
	C604.066223,716.224304 594.586365,716.957703 585.122498,717.202087 
	C557.328857,717.919922 529.544067,719.362366 501.720276,718.270691 
	C475.298065,717.233887 448.984009,715.279053 422.770752,711.585693 
	C400.732941,708.480713 378.794983,704.936829 357.026978,700.330261 
	C355.313446,699.967651 353.489655,699.767822 351.600800,698.134766 
	C356.852020,696.012817 362.093872,695.894226 367.062836,696.171265 
	C377.329376,696.743713 387.550568,698.135681 397.789032,699.204102 
	C411.821564,700.668579 425.858276,702.095642 439.883301,703.629272 
	C460.898804,705.927429 482.022827,706.695984 503.114441,707.349304 
	C524.747498,708.019348 546.433594,708.312927 568.072327,707.043518 
	C576.547363,706.546265 585.030457,706.480164 593.512695,705.930359 
	C616.582642,704.435059 639.428406,701.412659 662.248535,697.874146 
	C697.321045,692.435608 731.759094,684.452332 765.276978,672.748413 
	C791.189453,663.700256 816.024963,652.480103 837.401550,634.783508 
	C843.313293,629.889465 848.744263,624.496704 853.389404,618.338074 
	C860.701111,608.644104 863.063538,597.773132 860.806702,584.390381 
	C866.521790,589.430420 867.805847,594.938049 868.266968,600.581970 
	C869.382690,614.237183 863.152832,625.052856 854.237854,634.593689 
	C839.067566,650.829041 820.315674,661.879395 800.374329,671.068237 
	C792.971375,674.479431 785.306152,677.321411 777.391113,680.551514 
z"/>
</svg>
